<?xml version="1.0" encoding="UTF-8" standalone="no"?>
<!DOCTYPE svg PUBLIC "-//W3C//DTD SVG 1.1//EN"
"http://www.w3.org/Graphics/SVG/1.1/DTD/svg11.dtd">
<svg viewBox="0 0 2200 1234" version="1.1" xmlns="http://www.w3.org/2000/svg" xmlns:xlink="http://www.w3.org/1999/xlink">
<defs>
<clipPath id="c0_3"><path d="M0,1234.2V0H2200V1234.2Z"/></clipPath>
<clipPath id="c1_3"><path d="M0,121.2V0H2179.2V121.2Z"/></clipPath>
<style type="text/css"><![CDATA[
.g0_3{
fill: #FFF;
}
.g1_3{
fill: #6C3CBF;
}
.g2_3{
fill: none;
stroke: #002E75;
stroke-width: 1.515;
stroke-linejoin: round;
}
.g3_3{
fill: none;
stroke: #B3B1B1;
stroke-width: 1.125;
stroke-linejoin: round;
}
]]></style>
</defs>
<g clip-path="url(#c0_3)">
<path fill-rule="evenodd" d="M0,0H2200V1234.2H0V0Z" class="g0_3"/>
<path fill-rule="evenodd" d="M0,0H2200V1234.3H0V0Z" class="g0_3"/>
</g>
<g clip-path="url(#c1_3)">
<path fill-rule="evenodd" d="M12.9,121.2H0V0H25.9V121.2h-13Z" class="g1_3"/>
<image preserveAspectRatio="none" x="2007" y="34" width="172" height="25" xlink:href="img/1.jpg"/>
</g>
<path d="M666.5,146.2H63.2v86.1l1.1,7.8l3,7.1l4.6,6l6,4.7l7.1,3l7.9,1H696.2v-86l-1,-8l-3,-7l-4.7,-6l-6,-4.7l-7.1,-3l-7.9,-1Zm0,132.7H63.2V365l1.1,7.9l3,7.1l4.6,6l6,4.6l7.1,3l7.9,1.1H696.2V308.6l-1,-7.9l-3,-7.1l-4.7,-6l-6,-4.6l-7.1,-3l-7.9,-1.1Zm0,132.8H63.2v86l1.1,7.9l3,7.1l4.6,6l6,4.6l7.1,3.1l7.9,1H696.2V441.3l-1,-7.9l-3,-7l-4.7,-6.1l-6,-4.6l-7.1,-3l-7.9,-1Zm0,132.8H63.2v86l1.1,7.9l3,7.1l4.6,6l6,4.6l7.1,3l7.9,1.1H696.2V574.1l-1,-7.9l-3,-7.1l-4.7,-6l-6,-4.6l-7.1,-3l-7.9,-1Zm0,132.7H63.2v86l1.1,7.9l3,7.1l4.6,6l6,4.6l7.1,3.1l7.9,1H696.2v-86l-1,-8l-3,-7l-4.7,-6l-6,-4.7l-7.1,-3l-7.9,-1Zm0,132.7H63.2V896l1.1,7.9l3,7.1l4.6,5.9l6,4.7l7.1,3l7.9,1H696.2v-86l-1,-7.9l-3,-7.1l-4.7,-6l-6,-4.6l-7.1,-3l-7.9,-1.1Zm0,133.1H63.2v86l1.1,7.9l3,7.1l4.6,6l6,4.6l7.1,3l7.9,1.1H696.2V972.6l-1,-7.8l-3,-7.2l-4.7,-6l-6,-4.6l-7.1,-3l-7.9,-1ZM1389.6,146.2H785.9v86.1l1.1,7.8l3,7.1l4.6,6l6,4.7l7.1,3l7.9,1h603.6v-86l-1,-8l-3,-7l-4.6,-6l-6.1,-4.7l-7,-3l-7.9,-1Zm0,132.7H785.9V365l1.1,7.9l3,7.1l4.6,6l6,4.6l7.1,3l7.9,1.1h603.6V308.6l-1,-7.9l-3,-7.1l-4.6,-6l-6.1,-4.6l-7,-3l-7.9,-1.1Zm0,132.8H785.9v86l1.1,7.9l3,7.1l4.6,6l6,4.6l7.1,3.1l7.9,1h603.6V441.3l-1,-7.9l-3,-7l-4.6,-6.1l-6.1,-4.6l-7,-3l-7.9,-1Zm0,132.8H785.9v86l1.1,7.9l3,7.1l4.6,6l6,4.6l7.1,3l7.9,1.1h603.6V574.1l-1,-7.9l-3,-7.1l-4.6,-6l-6.1,-4.6l-7,-3l-7.9,-1Zm0,132.7H785.9v86l1.1,7.9l3,7.1l4.6,6l6,4.6l7.1,3.1l7.9,1h603.6v-86l-1,-8l-3,-7l-4.6,-6l-6.1,-4.7l-7,-3l-7.9,-1Zm0,132.7H785.9V896l1.1,7.9l3,7.1l4.6,5.9l6,4.7l7.1,3l7.9,1h603.6v-86l-1,-7.9l-3,-7.1l-4.6,-6l-6.1,-4.6l-7,-3l-7.9,-1.1Zm0,133.1H785.9v86l1.1,7.9l3,7.1l4.6,6l6,4.6l7.1,3l7.9,1.1h603.6V972.6l-1,-7.8l-3,-7.2l-4.6,-6l-6.1,-4.6l-7,-3l-7.9,-1Zm723,-796.8H1508.9v86.1l1.1,7.8l3,7.1l4.6,6l6,4.7l7.1,3l7.9,1h603.6v-86l-1,-8l-3,-7l-4.6,-6l-6.1,-4.7l-7,-3l-7.9,-1Zm0,132.7H1508.9V365l1.1,7.9l3,7.1l4.6,6l6,4.6l7.1,3l7.9,1.1h603.6V308.6l-1,-7.9l-3,-7.1l-4.6,-6l-6.1,-4.6l-7,-3l-7.9,-1.1Zm0,132.8H1508.9v86l1.1,7.9l3,7.1l4.6,6l6,4.6l7.1,3.1l7.9,1h603.6V441.3l-1,-7.9l-3,-7l-4.6,-6.1l-6.1,-4.6l-7,-3l-7.9,-1Zm0,132.8H1508.9v86l1.1,7.9l3,7.1l4.6,6l6,4.6l7.1,3l7.9,1.1h603.6V574.1l-1,-7.9l-3,-7.1l-4.6,-6l-6.1,-4.6l-7,-3l-7.9,-1Zm0,132.7H1508.9v86l1.1,7.9l3,7.1l4.6,6l6,4.6l7.1,3.1l7.9,1h603.6v-86l-1,-8l-3,-7l-4.6,-6l-6.1,-4.7l-7,-3l-7.9,-1Zm0,132.7H1508.9V896l1.1,7.9l3,7.1l4.6,5.9l6,4.7l7.1,3l7.9,1h603.6v-86l-1,-7.9l-3,-7.1l-4.6,-6l-6.1,-4.6l-7,-3l-7.9,-1.1Zm0,133.1H1508.9v86l1.1,7.9l3,7.1l4.6,6l6,4.6l7.1,3l7.9,1.1h603.6V972.6l-1,-7.8l-3,-7.2l-4.6,-6l-6.1,-4.6l-7,-3l-7.9,-1Z" class="g2_3"/>
<g clip-path="url(#c0_3)">
<image preserveAspectRatio="none" x="154" y="189" width="174" height="30" xlink:href="img/2.png"/>
<image preserveAspectRatio="none" x="150" y="588" width="182" height="29" xlink:href="img/3.png"/>
<image preserveAspectRatio="none" x="133" y="699" width="219" height="29" xlink:href="img/4.png"/>
<image preserveAspectRatio="none" x="170" y="743" width="147" height="29" xlink:href="img/5.png"/>
<image preserveAspectRatio="none" x="197" y="810" width="97" height="29" xlink:href="img/6.png"/>
<image preserveAspectRatio="none" x="134" y="854" width="221" height="29" xlink:href="img/7.png"/>
<image preserveAspectRatio="none" x="186" y="897" width="111" height="30" xlink:href="img/8.png"/>
<image preserveAspectRatio="none" x="205" y="986" width="79" height="30" xlink:href="img/9.png"/>
<image preserveAspectRatio="none" x="172" y="455" width="140" height="30" xlink:href="img/10.png"/>
<image preserveAspectRatio="none" x="169" y="322" width="147" height="30" xlink:href="img/11.png"/>
<image preserveAspectRatio="none" x="892" y="189" width="145" height="30" xlink:href="img/12.png"/>
<image preserveAspectRatio="none" x="897" y="588" width="80" height="29" xlink:href="img/13.png"/>
<image preserveAspectRatio="none" x="963" y="588" width="17" height="29" xlink:href="img/14.png"/>
<image preserveAspectRatio="none" x="972" y="588" width="61" height="29" xlink:href="img/15.png"/>
<image preserveAspectRatio="none" x="902" y="721" width="130" height="29" xlink:href="img/16.png"/>
<image preserveAspectRatio="none" x="902" y="854" width="127" height="29" xlink:href="img/17.png"/>
<image preserveAspectRatio="none" x="906" y="986" width="118" height="30" xlink:href="img/18.png"/>
<image preserveAspectRatio="none" x="850" y="455" width="230" height="30" xlink:href="img/19.png"/>
<image preserveAspectRatio="none" x="891" y="322" width="150" height="30" xlink:href="img/20.png"/>
<image preserveAspectRatio="none" x="1631" y="189" width="118" height="30" xlink:href="img/21.png"/>
<image preserveAspectRatio="none" x="1630" y="588" width="118" height="29" xlink:href="img/22.png"/>
<image preserveAspectRatio="none" x="1635" y="721" width="106" height="29" xlink:href="img/23.png"/>
<image preserveAspectRatio="none" x="1646" y="854" width="83" height="29" xlink:href="img/24.png"/>
<image preserveAspectRatio="none" x="1631" y="986" width="115" height="30" xlink:href="img/25.png"/>
<image preserveAspectRatio="none" x="1637" y="455" width="103" height="30" xlink:href="img/26.png"/>
<image preserveAspectRatio="none" x="1616" y="300" width="150" height="30" xlink:href="img/27.png"/>
<image preserveAspectRatio="none" x="1578" y="344" width="222" height="30" xlink:href="img/28.png"/>
<image preserveAspectRatio="none" x="433" y="847" width="138" height="36" xlink:href="img/29.jpg"/>
<image preserveAspectRatio="none" x="464" y="184" width="140" height="48" xlink:href="img/30.jpg"/>
<image preserveAspectRatio="none" x="453" y="976" width="56" height="42" xlink:href="img/31.jpg"/>
<image preserveAspectRatio="none" x="436" y="334" width="165" height="21" xlink:href="img/32.jpg"/>
<image preserveAspectRatio="none" x="403" y="388" width="233" height="156" xlink:href="img/33.png"/>
<image preserveAspectRatio="none" x="415" y="533" width="195" height="122" xlink:href="img/34.png"/>
<image preserveAspectRatio="none" x="424" y="702" width="186" height="74" xlink:href="img/35.jpg"/>
<image preserveAspectRatio="none" x="1133" y="146" width="214" height="120" xlink:href="img/36.png"/>
<image preserveAspectRatio="none" x="1129" y="301" width="205" height="70" xlink:href="img/37.png"/>
<image preserveAspectRatio="none" x="1138" y="377" width="186" height="198" xlink:href="img/38.png"/>
<image preserveAspectRatio="none" x="1147" y="554" width="204" height="78" xlink:href="img/39.jpg"/>
<image preserveAspectRatio="none" x="1160" y="713" width="161" height="41" xlink:href="img/40.jpg"/>
<image preserveAspectRatio="none" x="1152" y="826" width="158" height="60" xlink:href="img/41.jpg"/>
<image preserveAspectRatio="none" x="1140" y="973" width="198" height="49" xlink:href="img/42.jpg"/>
</g>
<path d="M2064.3,365.3V373" class="g3_3"/>
<g clip-path="url(#c0_3)">
<image preserveAspectRatio="none" x="1925" y="442" width="57" height="53" xlink:href="img/43.jpg"/>
<image preserveAspectRatio="none" x="1918" y="572" width="72" height="61" xlink:href="img/44.jpg"/>
<image preserveAspectRatio="none" x="1849" y="708" width="193" height="56" xlink:href="img/45.png"/>
<image preserveAspectRatio="none" x="1836" y="766" width="272" height="193" xlink:href="img/46.png"/>
<image preserveAspectRatio="none" x="1865" y="188" width="151" height="51" xlink:href="img/47.jpg"/>
<image preserveAspectRatio="none" x="1869" y="321" width="144" height="48" xlink:href="img/48.png"/>
<image preserveAspectRatio="none" x="1929" y="943" width="114" height="82" xlink:href="img/49.png"/>
</g>
<path d="M669.6,1083.6H66.3v86.1l1,7.9l3,7.1l4.6,5.9l6,4.7l7.1,3l7.9,1H699.2v-86l-1,-7.9l-3,-7.1l-4.6,-6l-6,-4.6l-7.1,-3l-7.9,-1.1Zm723,0H789v86.1l1.1,7.9l2.9,7.1l4.7,5.9l6,4.7l7.1,3l7.9,1h603.6v-86l-1,-7.9l-3,-7.1l-4.7,-6l-6,-4.6l-7,-3l-8,-1.1Zm723,0H1512v86.1l1,7.9l3,7.1l4.6,5.9l6.1,4.7l7,3l7.9,1h603.7v-86l-1.1,-7.9l-3,-7.1l-4.6,-6l-6,-4.6l-7.1,-3l-7.9,-1.1Z" class="g2_3"/>
<g clip-path="url(#c0_3)">
<image preserveAspectRatio="none" x="208" y="1127" width="79" height="30" xlink:href="img/50.png"/>
<image preserveAspectRatio="none" x="909" y="1127" width="118" height="30" xlink:href="img/51.png"/>
<image preserveAspectRatio="none" x="1634" y="1127" width="115" height="30" xlink:href="img/52.png"/>
<image preserveAspectRatio="none" x="456" y="1116" width="56" height="42" xlink:href="img/53.jpg"/>
<image preserveAspectRatio="none" x="1143" y="1114" width="198" height="49" xlink:href="img/54.jpg"/>
<image preserveAspectRatio="none" x="1932" y="1084" width="114" height="81" xlink:href="img/55.png"/>
</g>
</svg>