<svg width="40" height="40" viewBox="0 0 40 40" xmlns="http://www.w3.org/2000/svg"><g fill="none" fill-rule="evenodd"><path d="M0 0h40v40H0z"/><path d="M14.41 10.16c-.387-.93-.681-.965-1.269-.989-.2-.011-.423-.023-.67-.023-.764 0-1.563.224-2.045.717-.588.6-2.046 2-2.046 4.868 0 2.869 2.092 5.644 2.375 6.032.294.387 4.079 6.36 9.956 8.795 4.596 1.905 5.96 1.728 7.006 1.505 1.528-.33 3.444-1.458 3.926-2.822.482-1.364.482-2.528.34-2.775-.14-.247-.529-.387-1.116-.682-.588-.294-3.444-1.705-3.985-1.893-.529-.2-1.034-.129-1.434.435-.564.788-1.116 1.588-1.563 2.07-.353.376-.929.423-1.41.223-.647-.27-2.457-.905-4.69-2.892-1.729-1.54-2.904-3.456-3.245-4.033-.34-.588-.035-.929.235-1.246.294-.365.576-.623.87-.964.294-.341.458-.518.647-.918.2-.387.058-.787-.083-1.081-.14-.295-1.316-3.164-1.798-4.328ZM19.995 0C8.968 0 0 8.97 0 20c0 4.373 1.41 8.43 3.808 11.722l-2.492 7.431 7.688-2.457A19.842 19.842 0 0 0 20.006 40C31.032 40 40 31.028 40 20S31.032 0 20.006 0h-.012Z" fill="#B1B1B1"/></g></svg>