<?xml version="1.0" encoding="UTF-8" standalone="no"?>
<!DOCTYPE svg PUBLIC "-//W3C//DTD SVG 1.1//EN"
"http://www.w3.org/Graphics/SVG/1.1/DTD/svg11.dtd">
<svg viewBox="0 0 2200 1234" version="1.1" xmlns="http://www.w3.org/2000/svg" xmlns:xlink="http://www.w3.org/1999/xlink">
<defs>
<clipPath id="c0_10"><path d="M0,1234.2V0H2200V1234.2Z"/></clipPath>
<clipPath id="c1_10"><path d="M0,121.2V0H2179.2V121.2Z"/></clipPath>
<clipPath id="c2_10"><path d="M893.8,1095.2v-6.1H2050.3v6.1Z"/></clipPath>
<clipPath id="c3_10"><path d="M893.8,974.5v-6.1h763.8v6.1Z"/></clipPath>
<clipPath id="c4_10"><path d="M924.3,830.9v-6.1h763.9v6.1Z"/></clipPath>
<clipPath id="c5_10"><path d="M893.8,702.6v-6.1H2050.3v6.1Z"/></clipPath>
<clipPath id="c6_10"><path d="M884.6,306.9v-6.1h763.9v6.1Z"/></clipPath>
<clipPath id="c7_10"><path d="M537.8,355.8V256.5H895.3v99.3Z"/></clipPath>
<clipPath id="c8_10"><path d="M537.8,488.7V390.9H895.3v97.8Z"/></clipPath>
<clipPath id="c9_10"><path d="M537.8,748.4V649.1H895.3v99.3Z"/></clipPath>
<clipPath id="ca_10"><path d="M537.8,1018.8V921.1H895.3v97.7Z"/></clipPath>
<clipPath id="cb_10"><path d="M537.8,1141.1v-97.8H895.3v97.8Z"/></clipPath>
<clipPath id="cc_10"><path d="M954.9,355.8V256.5h355.9v99.3Z"/></clipPath>
<clipPath id="cd_10"><path d="M1350.6,355.8V256.5h357.5v99.3Z"/></clipPath>
<clipPath id="ce_10"><path d="M954.9,748.4V650.6h355.9v97.8Z"/></clipPath>
<clipPath id="cf_10"><path d="M1350.6,748.4V650.6h357.5v97.8Z"/></clipPath>
<clipPath id="cg_10"><path d="M1747.8,748.4V650.6h356v97.8Z"/></clipPath>
<clipPath id="ch_10"><path d="M954.9,878.3V779h355.9v99.3Z"/></clipPath>
<clipPath id="ci_10"><path d="M954.9,1018.8V921.1h355.9v97.7Z"/></clipPath>
<clipPath id="cj_10"><path d="M1350.6,1018.8V921.1h357.5v97.7Z"/></clipPath>
<clipPath id="ck_10"><path d="M954.9,1141.1v-97.8h355.9v97.8Z"/></clipPath>
<clipPath id="cl_10"><path d="M1350.6,1141.1v-97.8h357.5v97.8Z"/></clipPath>
<clipPath id="cm_10"><path d="M1747.8,1141.1v-97.8h356v97.8Z"/></clipPath>
<clipPath id="cn_10"><path d="M893.8,442.9v-6.1H2050.3v6.1Z"/></clipPath>
<clipPath id="co_10"><path d="M1747.8,488.7V390.9h356v97.8Z"/></clipPath>
<clipPath id="cp_10"><path d="M1350.6,488.7V390.9h357.5v97.8Z"/></clipPath>
<clipPath id="cq_10"><path d="M954.9,488.7V390.9h355.9v97.8Z"/></clipPath>
<clipPath id="cr_10"><path d="M458.3,323.7V287H495v36.7Z"/></clipPath>
<clipPath id="cs_10"><path d="M458.3,458.1V421.5H495v36.6Z"/></clipPath>
<clipPath id="ct_10"><path d="M458.3,714.8V679.7H495v35.1Z"/></clipPath>
<clipPath id="cu_10"><path d="M458.3,988.3V951.6H495v36.7Z"/></clipPath>
<clipPath id="cv_10"><path d="M458.3,1105.9v-35.1H495v35.1Z"/></clipPath>
<clipPath id="cw_10"><path d="M924.3,569.7v-6.1h1155v6.1Z"/></clipPath>
<clipPath id="cx_10"><path d="M954.9,617V519.3h355.9V617Z"/></clipPath>
<clipPath id="cy_10"><path d="M1747.8,617V519.3h356V617Z"/></clipPath>
<clipPath id="cz_10"><path d="M1350.6,617V519.3h357.5V617Z"/></clipPath>
<clipPath id="c10_10"><path d="M919.7,571.2V438.3h6.1V571.2Z"/></clipPath>
<clipPath id="c11_10"><path d="M919.7,830.9V698h6.1V830.9Z"/></clipPath>
<clipPath id="c12_10"><path d="M1350.6,878.3V779h357.5v99.3Z"/></clipPath>
<style type="text/css"><![CDATA[
.g0_10{
fill: #FFF;
}
.g1_10{
fill: #6C3CBF;
}
.g2_10{
fill: #000;
}
.g3_10{
fill: #fff;
}
.g4_10{
fill: #1C1338;
}
.g5_10{
fill: #422BA3;
}
.g6_10{
fill: #000;
}
.g7_10{
fill: none;
stroke: #000;
stroke-width: 3.074;
stroke-miterlimit: 3;
}
]]></style>
</defs>
<g clip-path="url(#c0_10)">
<path fill-rule="evenodd" d="M0,0H2200V1234.2H0V0Z" class="g0_10"/>
<path fill-rule="evenodd" d="M0,0H2200V1234.3H0V0Z" class="g0_10"/>
</g>
<g clip-path="url(#c1_10)">
<path fill-rule="evenodd" d="M12.9,121.2H0V0H25.9V121.2h-13Z" class="g1_10"/>
<image preserveAspectRatio="none" x="2007" y="34" width="172" height="25" xlink:href="img/1.jpg"/>
</g>
<g clip-path="url(#c2_10)" opacity="0.17">
<path fill-rule="evenodd" d="M1471.7,1094.5H894.5v-4.6H2048.9v4.6H1471.7Z" class="g2_10"/>
</g>
<path fill-rule="evenodd" d="M1471.7,1049.3H894.5v-4.6H2048.9v4.6H1471.7Z" class="g3_10"/>
<g clip-path="url(#c3_10)" opacity="0.17">
<path fill-rule="evenodd" d="M1276.4,973.2H895.2v-4.6h762.4v4.6H1276.4Z" class="g2_10"/>
</g>
<path fill-rule="evenodd" d="M1276.4,928H895.2v-4.6h762.4V928H1276.4Z" class="g3_10"/>
<g clip-path="url(#c4_10)" opacity="0.17">
<path fill-rule="evenodd" d="M1305.6,829.6H924.4V825h762.4v4.6H1305.6Z" class="g2_10"/>
</g>
<path fill-rule="evenodd" d="M1305.6,784.4H924.4v-4.6h762.4v4.6H1305.6Z" class="g3_10"/>
<g clip-path="url(#c5_10)" opacity="0.17">
<path fill-rule="evenodd" d="M1471.7,701.9H894.5v-4.6H2048.9v4.6H1471.7Z" class="g2_10"/>
</g>
<path fill-rule="evenodd" d="M1471.7,656.7H894.5v-4.6H2048.9v4.6H1471.7Z" class="g3_10"/>
<g clip-path="url(#c6_10)" opacity="0.17">
<path fill-rule="evenodd" d="M1266.6,306.7H885.4V302h762.3v4.7H1266.6Z" class="g2_10"/>
</g>
<path fill-rule="evenodd" d="M1266.6,261.4H885.4v-4.6h762.3v4.6H1266.6Z" class="g3_10"/>
<path fill-rule="evenodd" d="M50.6,474.1c0,-3.1,.8,-6.2,2.4,-8.9c1.5,-2.7,3.8,-4.9,6.5,-6.5c2.7,-1.6,5.8,-2.4,8.9,-2.4H418.9c3.1,0,6.2,.8,8.9,2.4c2.7,1.6,5,3.8,6.5,6.5c1.6,2.7,2.5,5.8,2.5,9V701.7c0,3.1,-.9,6.2,-2.4,8.9c-1.6,2.7,-3.8,4.9,-6.6,6.5c-2.7,1.6,-5.7,2.4,-8.9,2.4H68.4c-3.1,0,-6.2,-.8,-8.9,-2.4c-2.7,-1.5,-5,-3.8,-6.5,-6.5c-1.6,-2.7,-2.5,-5.8,-2.5,-8.9l.1,-227.6Z" class="g2_10"/>
<g clip-path="url(#c7_10)" opacity="0.17">
<path fill-rule="evenodd" d="M539.3,274.7c0,-3,.7,-6,2.3,-8.6c1.5,-2.6,3.6,-4.7,6.2,-6.3c2.6,-1.5,5.6,-2.3,8.6,-2.3l320.9,.1c3,0,6,.8,8.6,2.3c2.6,1.5,4.8,3.7,6.3,6.3c1.5,2.6,2.3,5.5,2.3,8.5v62.5c0,3,-.8,6,-2.3,8.6c-1.5,2.6,-3.7,4.8,-6.3,6.3c-2.6,1.5,-5.6,2.3,-8.6,2.3H556.4c-3,0,-6,-.8,-8.6,-2.3c-2.6,-1.5,-4.8,-3.7,-6.3,-6.3c-1.5,-2.6,-2.3,-5.5,-2.3,-8.6l.1,-62.5Z" class="g2_10"/>
</g>
<path fill-rule="evenodd" d="M539.3,229.5c0,-3,.7,-6,2.3,-8.6c1.5,-2.6,3.6,-4.8,6.2,-6.3c2.6,-1.5,5.6,-2.3,8.6,-2.3l320.9,.1c3,0,6,.8,8.6,2.3c2.6,1.5,4.8,3.7,6.3,6.3c1.5,2.6,2.3,5.5,2.3,8.5V292c0,3,-.8,6,-2.3,8.6c-1.5,2.6,-3.7,4.8,-6.3,6.3c-2.6,1.5,-5.6,2.3,-8.6,2.3H556.4c-3,0,-6,-.8,-8.6,-2.3c-2.6,-1.5,-4.8,-3.7,-6.3,-6.3C540,298,539.2,295.1,539.2,292l.1,-62.5Z" class="g2_10"/>
<g clip-path="url(#c8_10)" opacity="0.17">
<path fill-rule="evenodd" d="M539.3,408.3c0,-3,.7,-6,2.3,-8.6c1.5,-2.6,3.6,-4.7,6.2,-6.3c2.6,-1.5,5.6,-2.3,8.6,-2.3l320.9,.1c3,0,6,.8,8.6,2.3c2.6,1.5,4.8,3.7,6.3,6.3c1.5,2.6,2.3,5.5,2.3,8.5v62.5c0,3,-.8,6,-2.3,8.6c-1.5,2.6,-3.7,4.8,-6.3,6.3c-2.6,1.5,-5.6,2.3,-8.6,2.3H556.4c-3,0,-6,-.8,-8.6,-2.3c-2.6,-1.5,-4.8,-3.7,-6.3,-6.3c-1.5,-2.6,-2.3,-5.5,-2.3,-8.6l.1,-62.5Z" class="g2_10"/>
</g>
<path fill-rule="evenodd" d="M539.3,363.1c0,-3,.7,-6,2.3,-8.6c1.5,-2.6,3.6,-4.8,6.2,-6.3c2.6,-1.5,5.6,-2.3,8.6,-2.3l320.9,.1c3,0,6,.8,8.6,2.3c2.6,1.5,4.8,3.7,6.3,6.3c1.5,2.6,2.3,5.5,2.3,8.5v62.5c0,3,-.8,6,-2.3,8.6c-1.5,2.6,-3.7,4.8,-6.3,6.3c-2.6,1.5,-5.6,2.3,-8.6,2.3H556.4c-3,0,-6,-.8,-8.6,-2.3c-2.6,-1.5,-4.8,-3.7,-6.3,-6.3c-1.5,-2.6,-2.3,-5.5,-2.3,-8.6l.1,-62.5Z" class="g4_10"/>
<g clip-path="url(#c9_10)" opacity="0.17">
<path fill-rule="evenodd" d="M539.3,667.6c0,-3,.7,-6,2.3,-8.6c1.5,-2.6,3.6,-4.8,6.2,-6.3c2.6,-1.5,5.6,-2.3,8.6,-2.3l320.9,.1c3,0,6,.8,8.6,2.3c2.6,1.5,4.8,3.6,6.3,6.2c1.5,2.6,2.3,5.6,2.3,8.6v62.5c0,3,-.8,6,-2.3,8.6c-1.5,2.6,-3.7,4.8,-6.3,6.3c-2.6,1.5,-5.6,2.3,-8.6,2.3H556.4c-3,0,-6,-.8,-8.6,-2.3c-2.6,-1.5,-4.8,-3.7,-6.3,-6.3c-1.5,-2.6,-2.3,-5.6,-2.3,-8.6l.1,-62.5Z" class="g2_10"/>
</g>
<path fill-rule="evenodd" d="M539.3,622.4c0,-3,.7,-6,2.3,-8.6c1.5,-2.6,3.6,-4.8,6.2,-6.3c2.6,-1.5,5.6,-2.3,8.6,-2.3l320.9,.1c3,0,6,.7,8.6,2.3c2.6,1.5,4.8,3.6,6.3,6.2c1.5,2.6,2.3,5.6,2.3,8.6v62.5c0,3,-.8,6,-2.3,8.6c-1.5,2.6,-3.7,4.7,-6.3,6.3c-2.6,1.5,-5.6,2.3,-8.6,2.3H556.4c-3,0,-6,-.8,-8.6,-2.3c-2.6,-1.6,-4.8,-3.7,-6.3,-6.3c-1.5,-2.6,-2.3,-5.6,-2.3,-8.6l.1,-62.5Z" class="g4_10"/>
<g clip-path="url(#ca_10)" opacity="0.17">
<path fill-rule="evenodd" d="M539.3,938.3c0,-3,.7,-5.9,2.3,-8.5c1.5,-2.6,3.6,-4.8,6.2,-6.3c2.6,-1.5,5.6,-2.3,8.6,-2.3H877.3c3,0,6,.8,8.6,2.3c2.6,1.5,4.8,3.7,6.3,6.3c1.5,2.6,2.3,5.5,2.3,8.6v62.5c0,3,-.8,5.9,-2.3,8.5c-1.5,2.6,-3.7,4.8,-6.3,6.3c-2.6,1.5,-5.6,2.3,-8.6,2.3H556.4c-3,0,-6,-.8,-8.6,-2.3c-2.6,-1.5,-4.8,-3.7,-6.3,-6.3c-1.5,-2.6,-2.3,-5.5,-2.3,-8.5l.1,-62.6Z" class="g2_10"/>
</g>
<path fill-rule="evenodd" d="M539.3,893.1c0,-3,.7,-6,2.3,-8.6c1.5,-2.6,3.6,-4.7,6.2,-6.2c2.6,-1.5,5.6,-2.3,8.6,-2.3H877.3c3,0,6,.8,8.6,2.3c2.6,1.5,4.8,3.7,6.3,6.3c1.5,2.6,2.3,5.5,2.3,8.6v62.5c0,2.9,-.8,5.9,-2.3,8.5c-1.5,2.6,-3.7,4.8,-6.3,6.3c-2.6,1.5,-5.6,2.3,-8.6,2.3H556.4c-3,0,-6,-.8,-8.6,-2.3c-2.6,-1.5,-4.8,-3.7,-6.3,-6.3c-1.5,-2.6,-2.3,-5.5,-2.3,-8.5l.1,-62.6Z" class="g4_10"/>
<g clip-path="url(#cb_10)" opacity="0.17">
<path fill-rule="evenodd" d="M539.3,1060.5c0,-3,.7,-6,2.3,-8.6c1.5,-2.6,3.6,-4.7,6.2,-6.3c2.6,-1.5,5.6,-2.2,8.6,-2.2H877.3c3,0,6,.8,8.6,2.3c2.6,1.5,4.8,3.7,6.3,6.3c1.5,2.6,2.3,5.5,2.3,8.5V1123c0,3,-.8,6,-2.3,8.6c-1.5,2.6,-3.7,4.8,-6.3,6.3c-2.6,1.5,-5.6,2.3,-8.6,2.3H556.4c-3,0,-6,-.8,-8.6,-2.3c-2.6,-1.5,-4.8,-3.7,-6.3,-6.3c-1.5,-2.6,-2.3,-5.5,-2.3,-8.6l.1,-62.5Z" class="g2_10"/>
</g>
<path fill-rule="evenodd" d="M539.3,1015.3c0,-3,.7,-6,2.3,-8.6c1.5,-2.6,3.6,-4.7,6.2,-6.3c2.6,-1.5,5.6,-2.3,8.6,-2.3l320.9,.1c3,0,6,.8,8.6,2.3c2.6,1.5,4.8,3.7,6.3,6.3c1.5,2.6,2.3,5.5,2.3,8.5v62.5c0,3,-.8,6,-2.3,8.6c-1.5,2.6,-3.7,4.8,-6.3,6.3c-2.6,1.5,-5.6,2.3,-8.6,2.3H556.4c-3,0,-6,-.8,-8.6,-2.3c-2.6,-1.5,-4.8,-3.7,-6.3,-6.3c-1.5,-2.6,-2.3,-5.5,-2.3,-8.6l.1,-62.5Z" class="g4_10"/>
<g clip-path="url(#cc_10)" opacity="0.17">
<path fill-rule="evenodd" d="M955.6,274.7c0,-3,.8,-6,2.3,-8.6c1.5,-2.6,3.6,-4.7,6.2,-6.3c2.6,-1.5,5.6,-2.3,8.6,-2.3l320.9,.1c3,0,6,.8,8.6,2.3c2.6,1.5,4.8,3.7,6.3,6.3c1.5,2.6,2.3,5.5,2.3,8.5v62.5c0,3,-.8,6,-2.3,8.6c-1.5,2.6,-3.7,4.8,-6.3,6.3c-2.6,1.5,-5.5,2.3,-8.6,2.3H972.7c-3,0,-6,-.8,-8.6,-2.3c-2.6,-1.5,-4.8,-3.7,-6.3,-6.3c-1.5,-2.6,-2.3,-5.5,-2.3,-8.6l.1,-62.5Z" class="g2_10"/>
</g>
<path fill-rule="evenodd" d="M955.6,229.5c0,-3,.8,-6,2.3,-8.6c1.5,-2.6,3.6,-4.8,6.2,-6.3c2.6,-1.5,5.6,-2.3,8.6,-2.3l320.9,.1c3,0,6,.8,8.6,2.3c2.6,1.5,4.8,3.7,6.3,6.3c1.5,2.6,2.3,5.5,2.3,8.5V292c0,3,-.8,6,-2.3,8.6c-1.5,2.6,-3.7,4.8,-6.3,6.3c-2.6,1.5,-5.5,2.3,-8.6,2.3H972.7c-3,0,-6,-.8,-8.6,-2.3c-2.6,-1.5,-4.8,-3.7,-6.3,-6.3c-1.5,-2.6,-2.3,-5.5,-2.3,-8.6l.1,-62.5Z" class="g5_10"/>
<g clip-path="url(#cd_10)" opacity="0.17">
<path fill-rule="evenodd" d="M1352,274.7c0,-3,.8,-6,2.3,-8.6c1.6,-2.6,3.7,-4.7,6.3,-6.3c2.6,-1.5,5.6,-2.3,8.6,-2.3l320.9,.1c3,0,6,.8,8.6,2.3c2.6,1.5,4.7,3.7,6.3,6.3c1.5,2.6,2.3,5.5,2.3,8.5v62.5c0,3,-.8,6,-2.3,8.6c-1.6,2.6,-3.7,4.8,-6.3,6.3c-2.6,1.5,-5.6,2.3,-8.6,2.3H1369.2c-3,0,-6,-.8,-8.6,-2.3c-2.6,-1.5,-4.8,-3.7,-6.3,-6.3c-1.5,-2.6,-2.3,-5.5,-2.3,-8.6V274.7Z" class="g2_10"/>
</g>
<path fill-rule="evenodd" d="M1352,229.5c0,-3,.8,-6,2.3,-8.6c1.6,-2.6,3.7,-4.8,6.3,-6.3c2.6,-1.5,5.6,-2.3,8.6,-2.3l320.9,.1c3,0,6,.8,8.6,2.3c2.6,1.5,4.7,3.7,6.3,6.3c1.5,2.6,2.3,5.5,2.3,8.5V292c0,3,-.8,6,-2.3,8.6c-1.6,2.6,-3.7,4.8,-6.3,6.3c-2.6,1.5,-5.6,2.3,-8.6,2.3H1369.2c-3,0,-6,-.8,-8.6,-2.3c-2.6,-1.5,-4.8,-3.7,-6.3,-6.3c-1.5,-2.6,-2.3,-5.5,-2.3,-8.6V229.5Z" class="g5_10"/>
<g clip-path="url(#ce_10)" opacity="0.17">
<path fill-rule="evenodd" d="M955.6,668.3c0,-3,.8,-6,2.3,-8.6c1.5,-2.6,3.6,-4.7,6.2,-6.2c2.6,-1.6,5.6,-2.3,8.6,-2.3h320.9c3,0,6,.8,8.6,2.3c2.6,1.5,4.8,3.7,6.3,6.3c1.5,2.6,2.3,5.5,2.3,8.6v62.5c0,2.9,-.8,5.9,-2.3,8.5c-1.5,2.6,-3.7,4.8,-6.3,6.3c-2.6,1.5,-5.5,2.3,-8.6,2.3H972.7c-3,0,-6,-.8,-8.6,-2.3c-2.6,-1.5,-4.8,-3.7,-6.3,-6.3c-1.5,-2.6,-2.3,-5.5,-2.3,-8.5l.1,-62.6Z" class="g2_10"/>
</g>
<path fill-rule="evenodd" d="M955.6,623.1c0,-3,.8,-6,2.3,-8.6c1.5,-2.6,3.6,-4.7,6.2,-6.3c2.6,-1.5,5.6,-2.2,8.6,-2.2h320.9c3,0,6,.8,8.6,2.3c2.6,1.5,4.8,3.7,6.3,6.3c1.5,2.6,2.3,5.5,2.3,8.5v62.5c0,3,-.8,6,-2.3,8.6c-1.5,2.6,-3.7,4.8,-6.3,6.3c-2.6,1.5,-5.5,2.3,-8.6,2.3H972.7c-3,0,-6,-.8,-8.6,-2.3c-2.6,-1.5,-4.8,-3.7,-6.3,-6.3c-1.5,-2.6,-2.3,-5.5,-2.3,-8.6l.1,-62.5Z" class="g5_10"/>
<g clip-path="url(#cf_10)" opacity="0.17">
<path fill-rule="evenodd" d="M1352,668.3c0,-3,.8,-6,2.3,-8.6c1.6,-2.6,3.7,-4.7,6.3,-6.2c2.6,-1.6,5.6,-2.3,8.6,-2.3h320.9c3,0,6,.8,8.6,2.3c2.6,1.5,4.7,3.7,6.3,6.3c1.5,2.6,2.3,5.5,2.3,8.6v62.5c0,2.9,-.8,5.9,-2.3,8.5c-1.6,2.6,-3.7,4.8,-6.3,6.3c-2.6,1.5,-5.6,2.3,-8.6,2.3H1369.2c-3,0,-6,-.8,-8.6,-2.3c-2.6,-1.5,-4.8,-3.7,-6.3,-6.3c-1.5,-2.6,-2.3,-5.5,-2.3,-8.5V668.3Z" class="g2_10"/>
</g>
<path fill-rule="evenodd" d="M1352,623.1c0,-3,.8,-6,2.3,-8.6c1.6,-2.6,3.7,-4.7,6.3,-6.3c2.6,-1.5,5.6,-2.2,8.6,-2.2h320.9c3,0,6,.8,8.6,2.3c2.6,1.5,4.7,3.7,6.3,6.3c1.5,2.6,2.3,5.5,2.3,8.5v62.5c0,3,-.8,6,-2.3,8.6c-1.6,2.6,-3.7,4.8,-6.3,6.3c-2.6,1.5,-5.6,2.3,-8.6,2.3H1369.2c-3,0,-6,-.8,-8.6,-2.3c-2.6,-1.5,-4.8,-3.7,-6.3,-6.3c-1.5,-2.6,-2.3,-5.5,-2.3,-8.6V623.1Z" class="g5_10"/>
<g clip-path="url(#cg_10)" opacity="0.17">
<path fill-rule="evenodd" d="M1748.5,668.3c0,-3,.8,-6,2.3,-8.6c1.5,-2.6,3.7,-4.7,6.3,-6.2c2.6,-1.6,5.5,-2.3,8.5,-2.3h320.9c3,0,6,.8,8.6,2.3c2.6,1.5,4.8,3.7,6.3,6.3c1.5,2.6,2.3,5.5,2.3,8.6v62.5c0,2.9,-.8,5.9,-2.3,8.5c-1.5,2.6,-3.7,4.8,-6.3,6.3c-2.6,1.5,-5.5,2.3,-8.6,2.3H1765.6c-3,0,-6,-.8,-8.6,-2.3c-2.6,-1.5,-4.8,-3.7,-6.3,-6.3c-1.5,-2.6,-2.3,-5.5,-2.3,-8.5l.1,-62.6Z" class="g2_10"/>
</g>
<path fill-rule="evenodd" d="M1748.5,623.1c0,-3,.8,-6,2.3,-8.6c1.5,-2.6,3.7,-4.7,6.3,-6.3c2.6,-1.5,5.5,-2.2,8.5,-2.2h320.9c3,0,6,.8,8.6,2.3c2.6,1.5,4.8,3.7,6.3,6.3c1.5,2.6,2.3,5.5,2.3,8.5v62.5c0,3,-.8,6,-2.3,8.6c-1.5,2.6,-3.7,4.8,-6.3,6.3c-2.6,1.5,-5.5,2.3,-8.6,2.3H1765.6c-3,0,-6,-.8,-8.6,-2.3c-2.6,-1.5,-4.8,-3.7,-6.3,-6.3c-1.5,-2.6,-2.3,-5.5,-2.3,-8.6l.1,-62.5Z" class="g5_10"/>
<g clip-path="url(#ch_10)" opacity="0.17">
<path fill-rule="evenodd" d="M955.6,797.2c0,-3,.8,-6,2.3,-8.6c1.5,-2.6,3.6,-4.8,6.2,-6.3c2.6,-1.5,5.6,-2.3,8.6,-2.3h320.9c3,0,6,.8,8.6,2.3c2.6,1.6,4.8,3.7,6.3,6.3c1.5,2.6,2.3,5.6,2.3,8.6v62.5c0,3,-.8,6,-2.3,8.6c-1.5,2.6,-3.7,4.7,-6.3,6.2c-2.6,1.6,-5.5,2.3,-8.6,2.3H972.7c-3,0,-6,-.7,-8.6,-2.3c-2.6,-1.5,-4.8,-3.6,-6.3,-6.2c-1.5,-2.6,-2.3,-5.6,-2.3,-8.6l.1,-62.5Z" class="g2_10"/>
</g>
<path fill-rule="evenodd" d="M955.6,751.9c0,-2.9,.8,-5.9,2.3,-8.5c1.5,-2.6,3.6,-4.8,6.2,-6.3c2.6,-1.5,5.6,-2.3,8.6,-2.3h320.9c3,0,6,.8,8.6,2.3c2.6,1.5,4.8,3.7,6.3,6.3c1.5,2.6,2.3,5.6,2.3,8.6v62.5c0,3,-.8,6,-2.3,8.6c-1.5,2.5,-3.7,4.7,-6.3,6.2c-2.6,1.5,-5.5,2.3,-8.6,2.3H972.7c-3,0,-6,-.8,-8.6,-2.3c-2.6,-1.5,-4.8,-3.7,-6.3,-6.2c-1.5,-2.6,-2.3,-5.6,-2.3,-8.6l.1,-62.6Z" class="g5_10"/>
<g clip-path="url(#ci_10)" opacity="0.17">
<path fill-rule="evenodd" d="M955.6,938.3c0,-3,.8,-5.9,2.3,-8.5c1.5,-2.6,3.6,-4.8,6.2,-6.3c2.6,-1.5,5.6,-2.3,8.6,-2.3h320.9c3,0,6,.8,8.6,2.3c2.6,1.5,4.8,3.7,6.3,6.3c1.5,2.6,2.3,5.5,2.3,8.6v62.5c0,3,-.8,5.9,-2.3,8.5c-1.5,2.6,-3.7,4.8,-6.3,6.3c-2.6,1.5,-5.5,2.3,-8.6,2.3H972.7c-3,0,-6,-.8,-8.6,-2.3c-2.6,-1.5,-4.8,-3.7,-6.3,-6.3c-1.5,-2.6,-2.3,-5.5,-2.3,-8.5l.1,-62.6Z" class="g2_10"/>
</g>
<path fill-rule="evenodd" d="M955.6,893.1c0,-3,.8,-6,2.3,-8.6c1.5,-2.6,3.6,-4.7,6.2,-6.2c2.6,-1.5,5.6,-2.3,8.6,-2.3h320.9c3,0,6,.8,8.6,2.3c2.6,1.5,4.8,3.7,6.3,6.3c1.5,2.6,2.3,5.5,2.3,8.6v62.5c0,2.9,-.8,5.9,-2.3,8.5c-1.5,2.6,-3.7,4.8,-6.3,6.3c-2.6,1.5,-5.5,2.3,-8.6,2.3H972.7c-3,0,-6,-.8,-8.6,-2.3c-2.6,-1.5,-4.8,-3.7,-6.3,-6.3c-1.5,-2.6,-2.3,-5.5,-2.3,-8.5l.1,-62.6Z" class="g5_10"/>
<g clip-path="url(#cj_10)" opacity="0.17">
<path fill-rule="evenodd" d="M1352,938.3c0,-3,.8,-5.9,2.3,-8.5c1.6,-2.6,3.7,-4.8,6.3,-6.3c2.6,-1.5,5.6,-2.3,8.6,-2.3h320.9c3,0,6,.8,8.6,2.3c2.6,1.5,4.7,3.7,6.3,6.3c1.5,2.6,2.3,5.5,2.3,8.6v62.5c0,3,-.8,5.9,-2.3,8.5c-1.6,2.6,-3.7,4.8,-6.3,6.3c-2.6,1.5,-5.6,2.3,-8.6,2.3H1369.2c-3,0,-6,-.8,-8.6,-2.3c-2.6,-1.5,-4.8,-3.7,-6.3,-6.3c-1.5,-2.6,-2.3,-5.5,-2.3,-8.5V938.3Z" class="g2_10"/>
</g>
<path fill-rule="evenodd" d="M1352,893.1c0,-3,.8,-6,2.3,-8.6c1.6,-2.6,3.7,-4.7,6.3,-6.2c2.6,-1.5,5.6,-2.3,8.6,-2.3h320.9c3,0,6,.8,8.6,2.3c2.6,1.5,4.7,3.7,6.3,6.3c1.5,2.6,2.3,5.5,2.3,8.6v62.5c0,2.9,-.8,5.9,-2.3,8.5c-1.6,2.6,-3.7,4.8,-6.3,6.3c-2.6,1.5,-5.6,2.3,-8.6,2.3H1369.2c-3,0,-6,-.8,-8.6,-2.3c-2.6,-1.5,-4.8,-3.7,-6.3,-6.3c-1.5,-2.6,-2.3,-5.5,-2.3,-8.5V893.1Z" class="g5_10"/>
<g clip-path="url(#ck_10)" opacity="0.17">
<path fill-rule="evenodd" d="M955.6,1060.5c0,-3,.8,-6,2.3,-8.6c1.5,-2.6,3.6,-4.7,6.2,-6.3c2.6,-1.5,5.6,-2.2,8.6,-2.2h320.9c3,0,6,.8,8.6,2.3c2.6,1.5,4.8,3.7,6.3,6.3c1.5,2.6,2.3,5.5,2.3,8.5V1123c0,3,-.8,6,-2.3,8.6c-1.5,2.6,-3.7,4.8,-6.3,6.3c-2.6,1.5,-5.5,2.3,-8.6,2.3H972.7c-3,0,-6,-.8,-8.6,-2.3c-2.6,-1.5,-4.8,-3.7,-6.3,-6.3c-1.5,-2.6,-2.3,-5.5,-2.3,-8.6l.1,-62.5Z" class="g2_10"/>
</g>
<path fill-rule="evenodd" d="M955.6,1015.3c0,-3,.8,-6,2.3,-8.6c1.5,-2.6,3.6,-4.7,6.2,-6.3c2.6,-1.5,5.6,-2.3,8.6,-2.3l320.9,.1c3,0,6,.8,8.6,2.3c2.6,1.5,4.8,3.7,6.3,6.3c1.5,2.6,2.3,5.5,2.3,8.5v62.5c0,3,-.8,6,-2.3,8.6c-1.5,2.6,-3.7,4.8,-6.3,6.3c-2.6,1.5,-5.5,2.3,-8.6,2.3H972.7c-3,0,-6,-.8,-8.6,-2.3c-2.6,-1.5,-4.8,-3.7,-6.3,-6.3c-1.5,-2.6,-2.3,-5.5,-2.3,-8.6l.1,-62.5Z" class="g5_10"/>
<g clip-path="url(#cl_10)" opacity="0.17">
<path fill-rule="evenodd" d="M1352,1060.5c0,-3,.8,-6,2.3,-8.6c1.6,-2.6,3.7,-4.7,6.3,-6.3c2.6,-1.5,5.6,-2.2,8.6,-2.2h320.9c3,0,6,.8,8.6,2.3c2.6,1.5,4.7,3.7,6.3,6.3c1.5,2.6,2.3,5.5,2.3,8.5V1123c0,3,-.8,6,-2.3,8.6c-1.6,2.6,-3.7,4.8,-6.3,6.3c-2.6,1.5,-5.6,2.3,-8.6,2.3H1369.2c-3,0,-6,-.8,-8.6,-2.3c-2.6,-1.5,-4.8,-3.7,-6.3,-6.3c-1.5,-2.6,-2.3,-5.5,-2.3,-8.6v-62.5Z" class="g2_10"/>
</g>
<path fill-rule="evenodd" d="M1352,1015.3c0,-3,.8,-6,2.3,-8.6c1.6,-2.6,3.7,-4.7,6.3,-6.3c2.6,-1.5,5.6,-2.3,8.6,-2.3l320.9,.1c3,0,6,.8,8.6,2.3c2.6,1.5,4.7,3.7,6.3,6.3c1.5,2.6,2.3,5.5,2.3,8.5v62.5c0,3,-.8,6,-2.3,8.6c-1.6,2.6,-3.7,4.8,-6.3,6.3c-2.6,1.5,-5.6,2.3,-8.6,2.3H1369.2c-3,0,-6,-.8,-8.6,-2.3c-2.6,-1.5,-4.8,-3.7,-6.3,-6.3c-1.5,-2.6,-2.3,-5.5,-2.3,-8.6v-62.5Z" class="g5_10"/>
<g clip-path="url(#cm_10)" opacity="0.17">
<path fill-rule="evenodd" d="M1748.5,1060.5c0,-3,.8,-6,2.3,-8.6c1.5,-2.6,3.7,-4.7,6.3,-6.3c2.6,-1.5,5.5,-2.2,8.5,-2.2h320.9c3,0,6,.8,8.6,2.3c2.6,1.5,4.8,3.7,6.3,6.3c1.5,2.6,2.3,5.5,2.3,8.5V1123c0,3,-.8,6,-2.3,8.6c-1.5,2.6,-3.7,4.8,-6.3,6.3c-2.6,1.5,-5.5,2.3,-8.6,2.3H1765.6c-3,0,-6,-.8,-8.6,-2.3c-2.6,-1.5,-4.8,-3.7,-6.3,-6.3c-1.5,-2.6,-2.3,-5.5,-2.3,-8.6l.1,-62.5Z" class="g2_10"/>
</g>
<path fill-rule="evenodd" d="M1748.5,1015.3c0,-3,.8,-6,2.3,-8.6c1.5,-2.6,3.7,-4.7,6.3,-6.3c2.6,-1.5,5.5,-2.3,8.5,-2.3l320.9,.1c3,0,6,.8,8.6,2.3c2.6,1.5,4.8,3.7,6.3,6.3c1.5,2.6,2.3,5.5,2.3,8.5v62.5c0,3,-.8,6,-2.3,8.6c-1.5,2.6,-3.7,4.8,-6.3,6.3c-2.6,1.5,-5.5,2.3,-8.6,2.3H1765.6c-3,0,-6,-.8,-8.6,-2.3c-2.6,-1.5,-4.8,-3.7,-6.3,-6.3c-1.5,-2.6,-2.3,-5.5,-2.3,-8.6l.1,-62.5Z" class="g5_10"/>
<path fill-rule="evenodd" d="M111.8,581.4H358.2V541.3H111.8v40.1Z" class="g6_10"/>
<path fill-rule="evenodd" d="M164.1,627.5H306v-40H164.1v40Z" class="g6_10"/>
<g clip-path="url(#cn_10)" opacity="0.17">
<path fill-rule="evenodd" d="M1471.7,441.8H894.5v-4.6H2048.9v4.6H1471.7Z" class="g2_10"/>
</g>
<path fill-rule="evenodd" d="M1471.7,396.6H894.5V392H2048.9v4.6H1471.7Z" class="g3_10"/>
<g clip-path="url(#co_10)" opacity="0.17">
<path fill-rule="evenodd" d="M1748.5,408.3c0,-3,.8,-6,2.3,-8.6c1.5,-2.6,3.7,-4.7,6.3,-6.3c2.6,-1.5,5.5,-2.3,8.5,-2.3l320.9,.1c3,0,6,.8,8.6,2.3c2.6,1.5,4.8,3.7,6.3,6.3c1.5,2.6,2.3,5.5,2.3,8.5v62.5c0,3,-.8,6,-2.3,8.6c-1.5,2.6,-3.7,4.8,-6.3,6.3c-2.6,1.5,-5.5,2.3,-8.6,2.3H1765.6c-3,0,-6,-.8,-8.6,-2.3c-2.6,-1.5,-4.8,-3.7,-6.3,-6.3c-1.5,-2.6,-2.3,-5.5,-2.3,-8.6l.1,-62.5Z" class="g2_10"/>
</g>
<path fill-rule="evenodd" d="M1748.5,363.1c0,-3,.8,-6,2.3,-8.6c1.5,-2.6,3.7,-4.8,6.3,-6.3c2.6,-1.5,5.5,-2.3,8.5,-2.3l320.9,.1c3,0,6,.8,8.6,2.3c2.6,1.5,4.8,3.7,6.3,6.3c1.5,2.6,2.3,5.5,2.3,8.5v62.5c0,3,-.8,6,-2.3,8.6c-1.5,2.6,-3.7,4.8,-6.3,6.3c-2.6,1.5,-5.5,2.3,-8.6,2.3H1765.6c-3,0,-6,-.8,-8.6,-2.3c-2.6,-1.5,-4.8,-3.7,-6.3,-6.3c-1.5,-2.6,-2.3,-5.5,-2.3,-8.6l.1,-62.5Z" class="g5_10"/>
<g clip-path="url(#cp_10)" opacity="0.17">
<path fill-rule="evenodd" d="M1352,408.3c0,-3,.8,-6,2.3,-8.6c1.6,-2.6,3.7,-4.7,6.3,-6.3c2.6,-1.5,5.6,-2.3,8.6,-2.3l320.9,.1c3,0,6,.8,8.6,2.3c2.6,1.5,4.7,3.7,6.3,6.3c1.5,2.6,2.3,5.5,2.3,8.5v62.5c0,3,-.8,6,-2.3,8.6c-1.6,2.6,-3.7,4.8,-6.3,6.3c-2.6,1.5,-5.6,2.3,-8.6,2.3H1369.2c-3,0,-6,-.8,-8.6,-2.3c-2.6,-1.5,-4.8,-3.7,-6.3,-6.3c-1.5,-2.6,-2.3,-5.5,-2.3,-8.6V408.3Z" class="g2_10"/>
</g>
<path fill-rule="evenodd" d="M1352,363.1c0,-3,.8,-6,2.3,-8.6c1.6,-2.6,3.7,-4.8,6.3,-6.3c2.6,-1.5,5.6,-2.3,8.6,-2.3l320.9,.1c3,0,6,.8,8.6,2.3c2.6,1.5,4.7,3.7,6.3,6.3c1.5,2.6,2.3,5.5,2.3,8.5v62.5c0,3,-.8,6,-2.3,8.6c-1.6,2.6,-3.7,4.8,-6.3,6.3c-2.6,1.5,-5.6,2.3,-8.6,2.3H1369.2c-3,0,-6,-.8,-8.6,-2.3c-2.6,-1.5,-4.8,-3.7,-6.3,-6.3c-1.5,-2.6,-2.3,-5.5,-2.3,-8.6V363.1Z" class="g5_10"/>
<g clip-path="url(#cq_10)" opacity="0.17">
<path fill-rule="evenodd" d="M955.6,408.3c0,-3,.8,-6,2.3,-8.6c1.5,-2.6,3.6,-4.7,6.2,-6.3c2.6,-1.5,5.6,-2.3,8.6,-2.3l320.9,.1c3,0,6,.8,8.6,2.3c2.6,1.5,4.8,3.7,6.3,6.3c1.5,2.6,2.3,5.5,2.3,8.5v62.5c0,3,-.8,6,-2.3,8.6c-1.5,2.6,-3.7,4.8,-6.3,6.3c-2.6,1.5,-5.5,2.3,-8.6,2.3H972.7c-3,0,-6,-.8,-8.6,-2.3c-2.6,-1.5,-4.8,-3.7,-6.3,-6.3c-1.5,-2.6,-2.3,-5.5,-2.3,-8.6l.1,-62.5Z" class="g2_10"/>
</g>
<path fill-rule="evenodd" d="M955.6,363.1c0,-3,.8,-6,2.3,-8.6c1.5,-2.6,3.6,-4.8,6.2,-6.3c2.6,-1.5,5.6,-2.3,8.6,-2.3l320.9,.1c3,0,6,.8,8.6,2.3c2.6,1.5,4.8,3.7,6.3,6.3c1.5,2.6,2.3,5.5,2.3,8.5v62.5c0,3,-.8,6,-2.3,8.6c-1.5,2.6,-3.7,4.8,-6.3,6.3c-2.6,1.5,-5.5,2.3,-8.6,2.3H972.7c-3,0,-6,-.8,-8.6,-2.3c-2.6,-1.5,-4.8,-3.7,-6.3,-6.3c-1.5,-2.6,-2.3,-5.5,-2.3,-8.6l.1,-62.5Z" class="g5_10"/>
<path d="M477.1,1046.3V262.4" class="g7_10"/>
<g clip-path="url(#cr_10)" opacity="0.17">
<image preserveAspectRatio="none" x="460" y="288" width="34" height="35" xlink:href="img/2.png"/>
</g>
<image clip-path="url(#c0_10)" preserveAspectRatio="none" x="460" y="243" width="34" height="35" xlink:href="img/3.png"/>
<g clip-path="url(#cs_10)" opacity="0.17">
<image preserveAspectRatio="none" x="460" y="422" width="34" height="35" xlink:href="img/4.png"/>
</g>
<image clip-path="url(#c0_10)" preserveAspectRatio="none" x="460" y="377" width="34" height="35" xlink:href="img/5.png"/>
<g clip-path="url(#ct_10)" opacity="0.17">
<image preserveAspectRatio="none" x="460" y="680" width="34" height="35" xlink:href="img/6.png"/>
</g>
<image clip-path="url(#c0_10)" preserveAspectRatio="none" x="460" y="635" width="34" height="34" xlink:href="img/7.png"/>
<g clip-path="url(#cu_10)" opacity="0.17">
<image preserveAspectRatio="none" x="460" y="952" width="34" height="35" xlink:href="img/8.png"/>
</g>
<image clip-path="url(#c0_10)" preserveAspectRatio="none" x="460" y="907" width="34" height="35" xlink:href="img/9.png"/>
<g clip-path="url(#cv_10)" opacity="0.17">
<image preserveAspectRatio="none" x="460" y="1071" width="34" height="35" xlink:href="img/10.png"/>
</g>
<image clip-path="url(#c0_10)" preserveAspectRatio="none" x="460" y="1026" width="34" height="34" xlink:href="img/11.png"/>
<g clip-path="url(#cw_10)" opacity="0.17">
<path fill-rule="evenodd" d="M1501.6,569.5H924.4v-4.6H2078.8v4.6H1501.6Z" class="g2_10"/>
</g>
<path fill-rule="evenodd" d="M1501.6,524.3H924.4v-4.6H2078.8v4.6H1501.6Z" class="g3_10"/>
<g clip-path="url(#cx_10)" opacity="0.17">
<path fill-rule="evenodd" d="M955.6,537.1c0,-3,.8,-5.9,2.3,-8.5c1.5,-2.6,3.6,-4.8,6.2,-6.3c2.6,-1.5,5.6,-2.3,8.6,-2.3h320.9c3,0,6,.8,8.6,2.3c2.6,1.5,4.8,3.7,6.3,6.3c1.5,2.6,2.3,5.5,2.3,8.6v62.5c0,3,-.8,5.9,-2.3,8.5c-1.5,2.6,-3.7,4.8,-6.3,6.3c-2.6,1.5,-5.5,2.3,-8.6,2.3H972.7c-3,0,-6,-.8,-8.6,-2.3c-2.6,-1.5,-4.8,-3.7,-6.3,-6.3c-1.5,-2.6,-2.3,-5.5,-2.3,-8.5l.1,-62.6Z" class="g2_10"/>
</g>
<path fill-rule="evenodd" d="M955.6,491.9c0,-3,.8,-6,2.3,-8.5c1.5,-2.6,3.6,-4.8,6.2,-6.3c2.6,-1.5,5.6,-2.3,8.6,-2.3h320.9c3,0,6,.8,8.6,2.3c2.6,1.5,4.8,3.7,6.3,6.3c1.5,2.6,2.3,5.5,2.3,8.6v62.5c0,2.9,-.8,5.9,-2.3,8.5c-1.5,2.6,-3.7,4.8,-6.3,6.3c-2.6,1.5,-5.5,2.3,-8.6,2.3H972.7c-3,0,-6,-.8,-8.6,-2.3c-2.6,-1.5,-4.8,-3.7,-6.3,-6.3c-1.5,-2.6,-2.3,-5.5,-2.3,-8.5l.1,-62.6Z" class="g5_10"/>
<g clip-path="url(#cy_10)" opacity="0.17">
<path fill-rule="evenodd" d="M1748.5,537.1c0,-3,.8,-5.9,2.3,-8.5c1.5,-2.6,3.7,-4.8,6.3,-6.3c2.6,-1.5,5.5,-2.3,8.5,-2.3h320.9c3,0,6,.8,8.6,2.3c2.6,1.5,4.8,3.7,6.3,6.3c1.5,2.6,2.3,5.5,2.3,8.6v62.5c0,3,-.8,5.9,-2.3,8.5c-1.5,2.6,-3.7,4.8,-6.3,6.3c-2.6,1.5,-5.5,2.3,-8.6,2.3H1765.6c-3,0,-6,-.8,-8.6,-2.3c-2.6,-1.5,-4.8,-3.7,-6.3,-6.3c-1.5,-2.6,-2.3,-5.5,-2.3,-8.5l.1,-62.6Z" class="g2_10"/>
</g>
<path fill-rule="evenodd" d="M1748.5,491.9c0,-3,.8,-6,2.3,-8.5c1.5,-2.6,3.7,-4.8,6.3,-6.3c2.6,-1.5,5.5,-2.3,8.5,-2.3h320.9c3,0,6,.8,8.6,2.3c2.6,1.5,4.8,3.7,6.3,6.3c1.5,2.6,2.3,5.5,2.3,8.6v62.5c0,2.9,-.8,5.9,-2.3,8.5c-1.5,2.6,-3.7,4.8,-6.3,6.3c-2.6,1.5,-5.5,2.3,-8.6,2.3H1765.6c-3,0,-6,-.8,-8.6,-2.3c-2.6,-1.5,-4.8,-3.7,-6.3,-6.3c-1.5,-2.6,-2.3,-5.5,-2.3,-8.5l.1,-62.6Z" class="g5_10"/>
<g clip-path="url(#cz_10)" opacity="0.17">
<path fill-rule="evenodd" d="M1352,537.1c0,-3,.8,-5.9,2.3,-8.5c1.6,-2.6,3.7,-4.8,6.3,-6.3c2.6,-1.5,5.6,-2.3,8.6,-2.3h320.9c3,0,6,.8,8.6,2.3c2.6,1.5,4.7,3.7,6.3,6.3c1.5,2.6,2.3,5.5,2.3,8.6v62.5c0,3,-.8,5.9,-2.3,8.5c-1.6,2.6,-3.7,4.8,-6.3,6.3c-2.6,1.5,-5.6,2.3,-8.6,2.3H1369.2c-3,0,-6,-.8,-8.6,-2.3c-2.6,-1.5,-4.8,-3.7,-6.3,-6.3c-1.5,-2.6,-2.3,-5.5,-2.3,-8.5V537.1Z" class="g2_10"/>
</g>
<path fill-rule="evenodd" d="M1352,491.9c0,-3,.8,-6,2.3,-8.5c1.6,-2.6,3.7,-4.8,6.3,-6.3c2.6,-1.5,5.6,-2.3,8.6,-2.3h320.9c3,0,6,.8,8.6,2.3c2.6,1.5,4.7,3.7,6.3,6.3c1.5,2.6,2.3,5.5,2.3,8.6v62.5c0,2.9,-.8,5.9,-2.3,8.5c-1.6,2.6,-3.7,4.8,-6.3,6.3c-2.6,1.5,-5.6,2.3,-8.6,2.3H1369.2c-3,0,-6,-.8,-8.6,-2.3c-2.6,-1.5,-4.8,-3.7,-6.3,-6.3c-1.5,-2.6,-2.3,-5.5,-2.3,-8.5V491.9Z" class="g5_10"/>
<g clip-path="url(#c10_10)" opacity="0.17">
<path fill-rule="evenodd" d="M925.5,504.2v65.6h-4.7V438.5h4.7v65.7Z" class="g2_10"/>
</g>
<path fill-rule="evenodd" d="M925.5,459v65.6h-4.7V393.3h4.7V459Z" class="g3_10"/>
<g clip-path="url(#c11_10)" opacity="0.17">
<path fill-rule="evenodd" d="M925.5,764.3V830h-4.7V698.7h4.7v65.6Z" class="g2_10"/>
</g>
<path fill-rule="evenodd" d="M925.5,719.1v65.7h-4.7V653.5h4.7v65.6Z" class="g3_10"/>
<g clip-path="url(#c12_10)" opacity="0.17">
<path fill-rule="evenodd" d="M1352,797.2c0,-3,.8,-6,2.3,-8.6c1.6,-2.6,3.7,-4.8,6.3,-6.3c2.6,-1.5,5.6,-2.3,8.6,-2.3h320.9c3,0,6,.8,8.6,2.3c2.6,1.6,4.7,3.7,6.3,6.3c1.5,2.6,2.3,5.6,2.3,8.6v62.5c0,3,-.8,6,-2.3,8.6c-1.6,2.6,-3.7,4.7,-6.3,6.2c-2.6,1.6,-5.6,2.3,-8.6,2.3H1369.2c-3,0,-6,-.7,-8.6,-2.3c-2.6,-1.5,-4.8,-3.6,-6.3,-6.2c-1.5,-2.6,-2.3,-5.6,-2.3,-8.6V797.2Z" class="g2_10"/>
</g>
<path fill-rule="evenodd" d="M1352,751.9c0,-2.9,.8,-5.9,2.3,-8.5c1.6,-2.6,3.7,-4.8,6.3,-6.3c2.6,-1.5,5.6,-2.3,8.6,-2.3h320.9c3,0,6,.8,8.6,2.3c2.6,1.5,4.7,3.7,6.3,6.3c1.5,2.6,2.3,5.6,2.3,8.6v62.5c0,3,-.8,6,-2.3,8.6c-1.6,2.5,-3.7,4.7,-6.3,6.2c-2.6,1.5,-5.6,2.3,-8.6,2.3H1369.2c-3,0,-6,-.8,-8.6,-2.3c-2.6,-1.5,-4.8,-3.7,-6.3,-6.2c-1.5,-2.6,-2.3,-5.6,-2.3,-8.6V751.9Z" class="g5_10"/>
</svg>